<?xml version="1.0" standalone="no"?>
<!DOCTYPE svg PUBLIC "-//W3C//DTD SVG 20010904//EN"
 "http://www.w3.org/TR/2001/REC-SVG-20010904/DTD/svg10.dtd">
<svg version="1.0" xmlns="http://www.w3.org/2000/svg"
 width="512.000000pt" height="512.000000pt" viewBox="0 0 512.000000 512.000000"
 preserveAspectRatio="xMidYMid meet">
<metadata>
Created by potrace 1.14, written by Peter Selinger 2001-2017
</metadata>
<g transform="translate(0.000000,512.000000) scale(0.100000,-0.100000)"
fill="#000000" stroke="none">
<path d="M1960 4145 c-256 -44 -480 -164 -665 -357 -201 -210 -314 -461 -332
-738 l-6 -86 -83 -43 c-111 -58 -227 -151 -307 -247 -467 -555 -247 -1395 433
-1651 177 -66 116 -64 1676 -61 l1409 3 70 23 c260 83 452 245 561 475 52 111
74 199 81 324 11 214 -41 397 -163 569 -56 80 -175 190 -252 234 l-61 35 -1
56 c-1 269 -153 577 -373 758 -199 165 -432 245 -693 239 l-120 -2 -104 108
c-193 200 -415 319 -675 361 -108 18 -292 18 -395 0z m415 -335 c234 -59 442
-222 556 -435 23 -44 43 -81 44 -82 0 -1 31 9 67 22 364 132 776 -60 909 -425
44 -121 56 -242 36 -355 -9 -49 -19 -100 -23 -112 -7 -25 -8 -25 78 -41 127
-24 273 -126 348 -242 58 -91 83 -181 83 -300 0 -160 -43 -269 -151 -382 -68
-71 -130 -112 -224 -146 l-73 -27 -1340 -3 c-961 -2 -1362 0 -1420 8 -328 47
-569 291 -616 624 -52 369 213 726 586 790 80 14 77 4 56 146 -42 282 85 604
312 787 119 97 281 169 432 193 86 13 247 4 340 -20z"/>
</g>
</svg>
